<?xml version="1.0" standalone="no"?>
<!DOCTYPE svg PUBLIC "-//W3C//DTD SVG 20010904//EN"
 "http://www.w3.org/TR/2001/REC-SVG-20010904/DTD/svg10.dtd">
<svg version="1.0" xmlns="http://www.w3.org/2000/svg"
 width="1000.000000pt" height="1000.000000pt" viewBox="0 0 1000.000000 1000.000000"
 preserveAspectRatio="xMidYMid meet">
<metadata>
Created by potrace 1.11, written by Peter Selinger 2001-2013
</metadata>
<g transform="translate(0.000000,1000.000000) scale(0.100000,-0.100000)"
fill="#000000" stroke="none">
<path d="M4650 9994 c-19 -2 -84 -9 -145 -14 -894 -85 -1788 -434 -2510 -979
-361 -273 -723 -635 -996 -996 -476 -630 -803 -1390 -933 -2172 -55 -323 -61
-411 -61 -833 0 -422 6 -510 61 -833 129 -777 441 -1508 919 -2152 274 -370
660 -756 1030 -1030 644 -478 1375 -790 2152 -919 323 -55 411 -61 833 -61
422 0 510 6 833 61 777 129 1508 441 2152 919 370 274 756 660 1030 1030 477
644 790 1375 919 2152 55 323 61 411 61 833 0 422 -6 510 -61 833 -129 777
-441 1508 -919 2152 -274 370 -660 756 -1030 1030 -644 478 -1375 790 -2152
919 -302 51 -399 58 -783 61 -201 2 -381 1 -400 -1z m681 -344 c710 -55 1376
-259 1981 -606 629 -361 1184 -883 1581 -1487 611 -929 870 -2043 731 -3142
-76 -601 -277 -1200 -579 -1725 -214 -372 -440 -666 -754 -981 -195 -194 -307
-292 -506 -441 -963 -723 -2175 -1044 -3370 -892 -602 76 -1198 277 -1727 580
-629 361 -1184 883 -1581 1487 -611 929 -870 2043 -731 3142 76 602 277 1198
580 1727 315 548 740 1029 1255 1417 697 527 1552 849 2439 920 154 12 526 13
681 1z"/>
<path d="M5120 9385 c-111 -25 -219 -85 -316 -177 -172 -164 -285 -368 -355
-644 -29 -117 -52 -326 -42 -387 l5 -34 -113 -22 c-131 -26 -301 -76 -408
-120 -41 -17 -76 -29 -77 -28 -1 1 -19 34 -39 72 -216 407 -650 716 -1004 715
-326 -1 -573 -254 -573 -585 -1 -209 82 -360 237 -432 52 -24 72 -28 150 -28
77 0 98 4 140 26 64 32 119 104 145 188 12 39 34 79 55 102 73 81 66 194 -15
263 -128 107 -322 -3 -296 -169 9 -56 48 -109 95 -131 22 -11 41 -23 41 -27 0
-17 -29 -63 -58 -90 -78 -74 -223 -43 -306 66 -79 103 -86 298 -15 445 26 52
110 146 160 178 225 142 566 48 865 -238 108 -104 179 -195 252 -322 l52 -89
-75 -43 c-297 -169 -577 -436 -716 -681 -18 -32 -67 -96 -109 -143 -173 -192
-335 -414 -430 -592 -29 -54 -47 -78 -60 -78 -36 0 -287 -68 -385 -105 -528
-196 -878 -544 -992 -984 -34 -131 -42 -336 -19 -476 95 -573 599 -1109 1316
-1398 74 -30 167 -65 207 -78 70 -22 73 -24 125 -97 29 -41 57 -80 62 -87 7
-9 -3 -41 -31 -102 -85 -182 -117 -330 -118 -528 0 -126 4 -163 23 -228 119
-415 511 -609 1023 -506 189 38 415 130 594 244 50 32 95 58 100 58 6 0 75
-14 155 -31 211 -45 385 -62 617 -62 l202 0 83 -54 c187 -121 315 -166 493
-173 239 -10 413 61 579 237 101 108 197 268 245 410 9 28 31 48 109 100 184
124 397 309 533 466 l84 96 115 -6 c227 -12 525 27 716 95 361 127 596 350
660 628 20 85 20 237 -1 326 -20 89 -89 232 -153 315 -108 143 -284 288 -467
385 -49 27 -92 50 -94 51 -2 2 29 41 69 86 603 691 829 1530 580 2154 -138
346 -447 614 -817 708 -389 100 -879 37 -1324 -171 l-96 -45 -142 71 c-205
103 -393 175 -616 235 -49 13 -133 44 -185 69 -264 125 -545 181 -869 175
l-164 -3 6 120 c16 312 140 616 332 811 75 77 104 98 179 135 89 44 91 44 195
44 99 0 111 -2 174 -32 272 -129 372 -487 174 -620 -81 -54 -138 -53 -217 7
l-25 19 22 23 c68 73 53 211 -29 270 -28 19 -45 23 -108 23 -88 0 -127 -21
-160 -85 -53 -103 -3 -225 107 -261 22 -7 54 -30 76 -55 55 -63 152 -108 231
-108 142 0 275 110 320 263 58 198 -52 458 -249 590 -129 86 -292 118 -435 86z
m-205 -1565 c393 -46 728 -215 934 -474 355 -446 268 -1067 -212 -1523 -241
-229 -545 -383 -904 -460 -119 -25 -145 -27 -368 -28 -264 0 -347 12 -538 76
-333 111 -613 352 -727 626 -61 146 -73 212 -73 388 0 141 3 171 26 258 146
546 661 982 1312 1112 173 34 385 43 550 25z m2910 -324 c354 -93 576 -330
657 -701 22 -102 17 -379 -10 -514 -61 -304 -214 -634 -422 -912 -119 -158
-248 -296 -430 -458 -96 -85 -175 -160 -175 -165 0 -5 88 -37 195 -71 292 -92
424 -155 575 -276 261 -208 337 -448 204 -645 -155 -229 -581 -368 -1023 -334
-225 17 -458 73 -637 153 l-57 25 -7 53 c-91 733 -346 1402 -723 1906 l-54 73
61 67 c348 386 495 901 382 1345 l-18 68 31 24 c62 47 244 151 354 203 183 86
414 156 617 187 17 2 109 3 205 1 151 -2 189 -6 275 -29z m-5071 -1481 c165
-516 664 -901 1300 -1000 l38 -6 -7 -57 c-13 -99 -7 -470 9 -622 49 -449 166
-885 352 -1302 l66 -147 -41 -58 c-57 -80 -170 -204 -271 -296 -315 -287 -734
-458 -1021 -418 -123 17 -185 45 -255 115 -90 91 -109 144 -108 311 1 111 5
143 28 220 59 197 160 368 361 610 96 117 112 141 98 147 -10 4 -103 19 -208
33 -242 34 -384 65 -565 125 -743 248 -1258 763 -1287 1287 -4 62 -1 133 7
180 75 467 563 833 1235 927 248 35 242 36 269 -49z m2983 -740 c296 -413 515
-1007 599 -1630 25 -184 26 -595 1 -753 -49 -311 -139 -524 -276 -655 -126
-121 -274 -143 -452 -68 -368 155 -775 729 -989 1396 -126 394 -183 748 -183
1135 0 296 1 300 75 300 64 0 232 24 325 45 263 60 542 177 738 308 l68 46 22
-27 c12 -15 44 -58 72 -97z"/>
<path d="M5035 7471 c-178 -82 -191 -395 -24 -562 130 -130 305 -100 374 64
73 175 -36 445 -202 501 -60 21 -99 20 -148 -3z"/>
<path d="M3765 7113 c-135 -71 -176 -281 -88 -456 53 -106 160 -187 248 -187
276 1 294 497 23 636 -56 28 -137 32 -183 7z"/>
<path d="M5332 6382 c-37 -19 -42 -27 -102 -156 -35 -75 -56 -103 -129 -176
-145 -145 -285 -203 -491 -204 -159 -1 -253 28 -401 124 -68 44 -110 50 -159
25 -56 -29 -78 -111 -46 -173 30 -59 211 -160 366 -205 64 -19 99 -22 245 -21
155 0 178 3 258 27 267 82 489 271 596 508 52 115 56 140 33 191 -31 71 -103
96 -170 60z"/>
<path d="M7769 6987 c-57 -35 -176 -113 -264 -175 -194 -134 -396 -253 -652
-385 -106 -54 -197 -107 -203 -117 -16 -30 -12 -90 10 -125 25 -41 87 -70 133
-61 47 9 369 169 499 249 129 79 266 179 374 274 127 113 274 299 274 348 0
23 -33 55 -56 55 -6 0 -58 -28 -115 -63z"/>
<path d="M7565 5724 c-44 -8 -136 -30 -205 -49 -69 -18 -208 -54 -308 -79
-187 -46 -316 -95 -333 -127 -14 -27 -11 -72 7 -98 50 -71 183 -68 513 14 228
57 315 86 422 141 70 36 91 52 104 80 21 44 12 87 -22 114 -30 23 -65 24 -178
4z"/>
<path d="M7089 4382 c-52 -46 -35 -111 39 -155 79 -46 434 -89 489 -59 29 16
39 54 23 91 -16 39 -76 64 -270 112 -192 48 -238 49 -281 11z"/>
<path d="M2820 5194 c-14 -3 -76 -16 -137 -29 -137 -30 -269 -41 -654 -55
-332 -12 -396 -19 -416 -46 -32 -44 -1 -75 111 -109 192 -59 480 -92 691 -80
249 14 578 60 635 90 28 15 56 62 66 114 7 34 -21 67 -84 97 -37 17 -159 28
-212 18z"/>
<path d="M3360 4460 c-41 -10 -120 -37 -175 -60 -55 -23 -183 -73 -285 -112
-206 -77 -338 -139 -366 -170 -28 -30 -26 -101 4 -130 20 -20 32 -23 95 -21
106 3 244 42 472 134 304 121 445 208 445 275 0 37 -22 69 -60 89 -35 18 -36
18 -130 -5z"/>
<path d="M3702 3318 c-144 -151 -240 -273 -258 -330 -9 -30 15 -76 46 -87 58
-20 172 62 317 228 98 112 109 133 94 183 -8 26 -23 46 -44 58 -57 35 -79 28
-155 -52z"/>
</g>
</svg>
